<svg width="63" height="64" viewBox="0 0 63 64" fill="none" xmlns="http://www.w3.org/2000/svg">
<path d="M4.07929 63.0098C0.612307 63.0098 -0.963595 60.4884 0.612307 57.4416L28.6634 2.28506C30.2393 -0.761686 32.7607 -0.761686 34.3366 2.28506L62.3877 57.4416C63.9636 60.4884 62.3877 63.0098 58.9207 63.0098H4.07929Z" fill="#FFCE31"/>
<path d="M27.0875 22.6665L30.0292 42.1027C30.3443 43.9937 32.7607 43.9937 33.0759 42.1027L35.9125 22.6665C36.4378 15.1022 26.5622 15.1022 27.0875 22.6665Z" fill="#231F20"/>
<path d="M31.5 54.3948C33.937 54.3948 35.9125 52.4192 35.9125 49.9823C35.9125 47.5453 33.937 45.5697 31.5 45.5697C29.0631 45.5697 27.0875 47.5453 27.0875 49.9823C27.0875 52.4192 29.0631 54.3948 31.5 54.3948Z" fill="#231F20"/>
</svg>
