<svg width="14" height="10" viewBox="0 0 14 10" fill="none" xmlns="http://www.w3.org/2000/svg">
<path d="M0.0769196 8.46154C0.0769196 8.86957 0.239007 9.26088 0.527525 9.5494C0.816042 9.83792 1.20736 10 1.61538 10H12.3846C12.7926 10 13.184 9.83792 13.4725 9.5494C13.761 9.26088 13.9231 8.86957 13.9231 8.46154V6.92308H0.0769196V8.46154Z" fill="#138808"/>
<path d="M0.0769196 3.07692H13.9231V6.92307H0.0769196V3.07692Z" fill="#EEEEEE"/>
<path d="M13.9231 3.07692V1.53846C13.9231 1.13044 13.761 0.739122 13.4725 0.450605C13.184 0.162087 12.7926 0 12.3846 0H1.61538C1.20736 0 0.816042 0.162087 0.527525 0.450605C0.239007 0.739122 0.0769196 1.13044 0.0769196 1.53846L0.0769196 3.07692H13.9231Z" fill="#FF9933"/>
<path d="M6.99999 6.53846C7.84966 6.53846 8.53846 5.84966 8.53846 4.99999C8.53846 4.15033 7.84966 3.46153 6.99999 3.46153C6.15033 3.46153 5.46153 4.15033 5.46153 4.99999C5.46153 5.84966 6.15033 6.53846 6.99999 6.53846Z" fill="#000080"/>
<path d="M7 6.15385C7.63725 6.15385 8.15385 5.63726 8.15385 5.00001C8.15385 4.36276 7.63725 3.84616 7 3.84616C6.36275 3.84616 5.84615 4.36276 5.84615 5.00001C5.84615 5.63726 6.36275 6.15385 7 6.15385Z" fill="#EEEEEE"/>
<path d="M7 3.84616L7.05615 4.71693L7.44115 3.93424L7.16038 4.76001L7.81577 4.18385L7.24 4.83962L8.06577 4.55847L7.28308 4.94385L8.15385 5.00001L7.28308 5.05616L8.06577 5.44116L7.24 5.16039L7.81577 5.81578L7.16038 5.24001L7.44115 6.06578L7.05615 5.28308L7 6.15385L6.94385 5.28308L6.55846 6.06578L6.83961 5.24001L6.18385 5.81578L6.76 5.16039L5.93423 5.44116L6.71692 5.05616L5.84615 5.00001L6.71692 4.94385L5.93423 4.55847L6.76 4.83962L6.18385 4.18385L6.83961 4.76001L6.55846 3.93424L6.94385 4.71693L7 3.84616Z" fill="#6666B3"/>
<path d="M6.99999 5.38462C7.21241 5.38462 7.38461 5.21242 7.38461 5C7.38461 4.78759 7.21241 4.61539 6.99999 4.61539C6.78758 4.61539 6.61538 4.78759 6.61538 5C6.61538 5.21242 6.78758 5.38462 6.99999 5.38462Z" fill="#000080"/>
</svg>
