<svg width="32" height="32" viewBox="0 0 32 32" fill="none" xmlns="http://www.w3.org/2000/svg">
<path d="M29.4741 0.620797C28.91 0.306371 28.2897 0.106416 27.6484 0.0323663C27.0072 -0.0416833 26.3577 0.0116247 25.737 0.189242C25.1164 0.36686 24.5367 0.665304 24.0313 1.06751C23.5259 1.46971 23.1045 1.96778 22.7914 2.53323L13.669 18.9797L8.44815 13.7494C7.99487 13.2792 7.45267 12.9042 6.85317 12.6462C6.25367 12.3883 5.60889 12.2525 4.95645 12.2468C4.304 12.2411 3.65696 12.3657 3.05308 12.6132C2.4492 12.8607 1.90057 13.2262 1.4392 13.6884C0.977839 14.1506 0.612978 14.7002 0.36591 15.3052C0.118842 15.9102 -0.00548404 16.5584 0.000185527 17.212C0.00585509 17.8656 0.141407 18.5115 0.398932 19.1121C0.656457 19.7127 1.0308 20.2559 1.50011 20.71L11.3276 30.5552C12.2563 31.488 13.5093 32 14.8016 32L15.4822 31.9508C16.2353 31.8452 16.9538 31.566 17.5809 31.135C18.208 30.7041 18.7268 30.1332 19.0962 29.4673L31.3806 7.31555C31.6943 6.75056 31.8937 6.12922 31.9677 5.487C32.0416 4.84478 31.9885 4.19426 31.8115 3.57259C31.6344 2.95091 31.3369 2.37026 30.9358 1.86379C30.5348 1.35732 30.0381 0.934953 29.4741 0.620797Z" fill="white"/>
</svg>
